<svg width="1019" height="1019" viewBox="0 0 1019 1019" fill="none" xmlns="http://www.w3.org/2000/svg">
<g opacity="0.5">
<path d="M714.509 231.003L597.003 299.867" stroke="#B2B2B2"/>
<path d="M645.644 113.497L528.138 182.361" stroke="url(#paint0_linear_4537_888)"/>
<path d="M597.003 299.867L528.138 182.361" stroke="#B2B2B2"/>
<path d="M714.509 231.003L645.644 113.497" stroke="#B2B2B2"/>
<path d="M597.003 299.867L440.328 391.686" stroke="#B2B2B2"/>
<path d="M528.139 182.361L371.464 274.18" stroke="url(#paint1_linear_4537_888)"/>
<path d="M440.328 391.686L371.464 274.18" stroke="#B2B2B2"/>
<path d="M597.003 299.867L528.138 182.361" stroke="url(#paint2_linear_4537_888)"/>
<path d="M97.2836 434.864L214.789 366" stroke="#B2B2B2"/>
<path d="M166.148 552.37L283.654 483.506" stroke="#B2B2B2"/>
<path d="M214.789 366L283.654 483.506" stroke="#B2B2B2"/>
<path d="M97.2836 434.864L166.148 552.37" stroke="#B2B2B2"/>
<path d="M214.79 366L371.464 274.181" stroke="url(#paint3_linear_4537_888)"/>
<path d="M283.654 483.506L440.328 391.687" stroke="#B2B2B2"/>
<path d="M214.79 366L283.654 483.506" stroke="#B2B2B2"/>
<path d="M440.328 391.686L557.834 322.822" stroke="#B2B2B2"/>
<path d="M509.193 509.192L626.699 440.328" stroke="#B2B2B2"/>
<path d="M557.834 322.822L626.699 440.328" stroke="#B2B2B2"/>
<path d="M557.834 322.822L714.508 231.003" stroke="#B2B2B2"/>
<path d="M626.698 440.328L783.373 348.508" stroke="#B2B2B2"/>
<path d="M714.508 231.002L783.373 348.508" stroke="url(#paint4_linear_4537_888)"/>
<path d="M557.834 322.822L626.698 440.328" stroke="#B2B2B2"/>
<path d="M509.193 509.192L391.687 578.056" stroke="#B2B2B2"/>
<path d="M440.329 391.686L322.823 460.55" stroke="#B2B2B2"/>
<path d="M391.687 578.056L322.823 460.551" stroke="#B2B2B2"/>
<path d="M391.687 578.056L235.012 669.875" stroke="#B2B2B2"/>
<path d="M322.823 460.55L166.148 552.37" stroke="#B2B2B2"/>
<path d="M235.013 669.876L166.148 552.37" stroke="url(#paint5_linear_4537_888)"/>
<path d="M391.687 578.056L322.822 460.55" stroke="#B2B2B2"/>
<path d="M852.204 466.006L734.698 534.871" stroke="#B2B2B2"/>
<path d="M783.339 348.501L665.834 417.365" stroke="#B2B2B2"/>
<path d="M734.698 534.871L665.834 417.365" stroke="#B2B2B2"/>
<path d="M852.204 466.006L783.339 348.5" stroke="#B2B2B2"/>
<path d="M734.698 534.871L578.023 626.69" stroke="#B2B2B2"/>
<path d="M665.833 417.365L509.159 509.184" stroke="#B2B2B2"/>
<path d="M578.023 626.69L509.159 509.184" stroke="#B2B2B2"/>
<path d="M734.698 534.871L665.833 417.365" stroke="url(#paint6_linear_4537_888)"/>
<path d="M234.979 669.868L352.484 601.003" stroke="#B2B2B2"/>
<path d="M303.843 787.374L421.349 718.509" stroke="#B2B2B2"/>
<path d="M352.484 601.003L421.349 718.509" stroke="#B2B2B2"/>
<path d="M234.979 669.868L303.843 787.374" stroke="#B2B2B2"/>
<path d="M352.485 601.003L509.16 509.184" stroke="url(#paint7_linear_4537_888)"/>
<path d="M421.349 718.509L578.024 626.69" stroke="#B2B2B2"/>
<path d="M352.485 601.003L421.349 718.509" stroke="#B2B2B2"/>
<path d="M578.023 626.69L695.529 557.826" stroke="#B2B2B2"/>
<path d="M646.887 744.196L764.393 675.331" stroke="#B2B2B2"/>
<path d="M695.529 557.825L764.393 675.331" stroke="#B2B2B2"/>
<path d="M695.529 557.825L852.204 466.006" stroke="url(#paint8_linear_4537_888)"/>
<path d="M764.394 675.332L921.068 583.512" stroke="url(#paint9_linear_4537_888)"/>
<path d="M852.203 466.006L921.068 583.512" stroke="#B2B2B2"/>
<path d="M695.529 557.825L764.394 675.331" stroke="#B2B2B2"/>
<path d="M646.888 744.196L529.382 813.06" stroke="#B2B2B2"/>
<path d="M578.023 626.69L460.517 695.554" stroke="#B2B2B2"/>
<path d="M529.382 813.06L460.518 695.554" stroke="#B2B2B2"/>
<path d="M529.382 813.06L372.707 904.88" stroke="#B2B2B2"/>
<path d="M460.517 695.554L303.843 787.374" stroke="#B2B2B2"/>
<path d="M372.707 904.88L303.843 787.374" stroke="#B2B2B2"/>
<path d="M529.382 813.06L460.517 695.554" stroke="url(#paint10_linear_4537_888)"/>
</g>
<defs>
<linearGradient id="paint0_linear_4537_888" x1="621.653" y1="107.235" x2="562.83" y2="160.097" gradientUnits="userSpaceOnUse">
<stop stop-color="#13B0F5"/>
<stop offset="1" stop-color="#CA24B4"/>
</linearGradient>
<linearGradient id="paint1_linear_4537_888" x1="527.723" y1="183.954" x2="427.611" y2="316.567" gradientUnits="userSpaceOnUse">
<stop stop-color="#E70FAA"/>
<stop offset="1" stop-color="#13B0F5"/>
</linearGradient>
<linearGradient id="paint2_linear_4537_888" x1="603.264" y1="275.875" x2="550.402" y2="217.053" gradientUnits="userSpaceOnUse">
<stop stop-color="#13B0F5"/>
<stop offset="1" stop-color="#CA24B4"/>
</linearGradient>
<linearGradient id="paint3_linear_4537_888" x1="246.778" y1="374.349" x2="325.208" y2="303.866" gradientUnits="userSpaceOnUse">
<stop stop-color="#00C0FD"/>
<stop offset="0.421875" stop-color="#E70FAA"/>
<stop offset="1" stop-color="#00C0FD"/>
</linearGradient>
<linearGradient id="paint4_linear_4537_888" x1="708.247" y1="254.994" x2="761.109" y2="313.816" gradientUnits="userSpaceOnUse">
<stop stop-color="#13B0F5"/>
<stop offset="0.0001" stop-color="#505685"/>
<stop offset="0.317708" stop-color="#CA24B4"/>
<stop offset="1" stop-color="#13B0F5"/>
</linearGradient>
<linearGradient id="paint5_linear_4537_888" x1="235.013" y1="669.876" x2="134.428" y2="594.956" gradientUnits="userSpaceOnUse">
<stop stop-color="#8E34FF"/>
<stop offset="0.494792" stop-color="#CA24B4"/>
<stop offset="1" stop-color="#8E34FF"/>
</linearGradient>
<linearGradient id="paint6_linear_4537_888" x1="740.959" y1="510.879" x2="688.097" y2="452.057" gradientUnits="userSpaceOnUse">
<stop stop-color="#CA24B4"/>
<stop offset="0.234375" stop-color="#13B0F5"/>
</linearGradient>
<linearGradient id="paint7_linear_4537_888" x1="392.554" y1="577.858" x2="465.928" y2="479.798" gradientUnits="userSpaceOnUse">
<stop stop-color="#13B0F5"/>
<stop offset="0.75" stop-color="#CA24B4"/>
<stop offset="1" stop-color="#13B0F5"/>
</linearGradient>
<linearGradient id="paint8_linear_4537_888" x1="727.518" y1="566.174" x2="805.948" y2="495.691" gradientUnits="userSpaceOnUse">
<stop stop-color="#8643DC"/>
<stop offset="0.0001" stop-color="#8643DC"/>
<stop offset="0.317708" stop-color="#CA24B4"/>
<stop offset="1" stop-color="#8643DC"/>
</linearGradient>
<linearGradient id="paint9_linear_4537_888" x1="796.382" y1="683.68" x2="874.812" y2="613.197" gradientUnits="userSpaceOnUse">
<stop stop-color="#8643DC"/>
<stop offset="0.0001" stop-color="#8643DC"/>
<stop offset="0.317708" stop-color="#CA24B4"/>
<stop offset="1" stop-color="#8643DC"/>
</linearGradient>
<linearGradient id="paint10_linear_4537_888" x1="529.382" y1="813.06" x2="428.797" y2="738.141" gradientUnits="userSpaceOnUse">
<stop stop-color="#13B0F5"/>
<stop offset="0.0582928" stop-color="#CA24B4"/>
<stop offset="1" stop-color="#13B0F5"/>
</linearGradient>
</defs>
</svg>
